# xmcd
#
# Track frame offsets:
#	150
#	13981
#	24559
#	34921
#	47522
#	57517
#	69025
#	81708
#	92399
#	105884
#	115551
#	130359
#	139939
#	153329
#	164116
#	177913
#	190094
#	209888
#	221839
#	232652
#	244213
#	256799
#	269772
#	279616
#	290903
#	300556
#	312210
#	325447
#
# Disc length: 4494 seconds
#
# Revision: 1
# Processed by: cddbd v1.5.2PL0 Copyright (c) Steve Scherf et al.
# Submitted via: audiograbber 1.83.01
#
DISCID=a4118c1c
DTITLE=Various Artist - Lonesome Cowboy
DYEAR=1900
DGENRE=Country
TTITLE0=Charley Pride - Detroit City
TTITLE1=Waylon Jennings - The Taker
TTITLE2=Jerry Reed - A Thing Called Love
TTITLE3=Jonny Russel - Catfish John
TTITLE4=Don Gibson - Lonesome Old House
TTITLE5=Roger Miller - Footprints In The Snow
TTITLE6=Hank Snow - I´m Movin´ On
TTITLE7=Jim Reeves - He´ll Have To Go
TTITLE8=Nat Stucky - Ruby, Don´t Take Your Love To Town
TTITLE9=Willie Nelson - Mountain Dew
TTITLE10=Skeeter Davis - One Tin Soldier
TTITLE11=Jerry Reed and Chet Atkins - All I Ever Need Is You
TTITLE12=Porter Wagoner - Good Old Country Musik
TTITLE13=Bobby Bare and The Hillsiders - Six Days On The Road
TTITLE14=Jimmy Dean - Big Bad John
TTITLE15=Tammy Wynette - Stand By Your Man
TTITLE16=Marty Robbins - El Paso
TTITLE17=Jody Miller - There´s  A Party Goin´ On
TTITLE18=Billy Crash Craddock - You Better Move On
TTITLE19=Johnny Cash - I Walk The Line
TTITLE20=Johnny Horton - North To Alaska
TTITLE21=Lynn Anderson - Rose Garden
TTITLE22=George Jones - You´re Looking At A Happy Man
TTITLE23=Stonewall  Jackson - Waterloo
TTITLE24=Lester Flatt and Earl Scruggs - Foggy Mountain Breakdown
TTITLE25=Sonny James - Love Is A Rainbow
TTITLE26=Freddy Weller - Games People Play
TTITLE27=Charlie Rich - The Most Beautiful Girl
EXTD=
EXTT0=
EXTT1=
EXTT2=
EXTT3=
EXTT4=
EXTT5=
EXTT6=
EXTT7=
EXTT8=
EXTT9=
EXTT10=
EXTT11=
EXTT12=
EXTT13=
EXTT14=
EXTT15=
EXTT16=
EXTT17=
EXTT18=
EXTT19=
EXTT20=
EXTT21=
EXTT22=
EXTT23=
EXTT24=
EXTT25=
EXTT26=
EXTT27=
PLAYORDER=
